<?xml version="1.0" standalone="no"?>
<!DOCTYPE svg PUBLIC "-//W3C//DTD SVG 20010904//EN"
 "http://www.w3.org/TR/2001/REC-SVG-20010904/DTD/svg10.dtd">
<svg version="1.0" xmlns="http://www.w3.org/2000/svg"
 width="1280.000000pt" height="640.000000pt" viewBox="0 0 1280.000000 640.000000"
 preserveAspectRatio="xMidYMid meet">
<g transform="translate(0.000000,640.000000) scale(0.100000,-0.100000)"
fill="#000000" stroke="none">
<path d="M11010 6239 c1 -21 33 -88 89 -184 28 -47 58 -102 66 -122 15 -35 14
-39 -3 -62 -57 -76 -172 -86 -319 -28 -50 20 -110 39 -132 43 -65 10 -60 1 68
-157 52 -64 80 -122 81 -164 0 -18 -24 -77 -56 -140 -60 -118 -62 -136 -34
-230 29 -94 -34 -180 -187 -256 -101 -49 -241 -137 -263 -164 -14 -17 -13 -18
3 -12 30 11 207 64 325 97 76 21 123 29 143 25 46 -10 93 -58 164 -165 60 -91
68 -99 129 -128 147 -70 181 -126 237 -386 20 -95 31 -116 59 -116 32 0 51 37
72 141 33 169 58 198 193 219 109 17 214 48 276 82 67 37 86 35 157 -23 l52
-41 -6 75 c-8 88 5 134 51 186 18 20 39 50 48 66 32 63 90 94 176 96 l46 0
-40 15 c-48 17 -85 51 -85 76 0 59 79 134 199 190 232 108 271 128 271 138 0
13 9 13 -185 15 -148 1 -176 4 -216 22 -44 20 -48 25 -64 79 -9 33 -19 68 -22
79 -3 11 -16 41 -29 66 l-23 47 20 18 c22 20 103 25 194 12 55 -8 -125 43
-216 62 -31 6 -76 21 -100 33 -37 19 -44 27 -47 56 -6 58 6 93 64 195 31 53
53 100 50 103 -7 7 -39 -13 -133 -84 -40 -30 -98 -66 -129 -80 -48 -22 -64
-24 -117 -19 -78 9 -205 50 -252 82 -20 13 -44 24 -53 24 -9 0 -51 -23 -92
-51 -110 -75 -128 -67 -290 131 -91 111 -140 160 -140 139z"/>
<path d="M4795 6076 c13 -30 51 -109 85 -175 33 -66 60 -125 60 -131 0 -5 -26
-26 -57 -46 -50 -32 -61 -35 -85 -26 -22 8 -28 7 -28 -4 0 -21 -12 -19 -190
41 -91 30 -168 54 -173 52 -4 -1 44 -69 108 -151 63 -81 115 -152 115 -157 0
-6 -12 -33 -27 -62 -14 -29 -36 -81 -47 -117 -17 -52 -26 -66 -43 -68 -28 -4
-30 -18 -4 -25 18 -4 20 -16 23 -123 2 -66 0 -126 -4 -134 -3 -8 -128 -85
-276 -170 -149 -85 -269 -157 -267 -159 2 -2 90 23 195 54 105 31 197 55 205
52 7 -3 18 0 24 7 6 7 48 24 93 37 79 22 82 22 92 4 70 -121 191 -261 258
-299 18 -11 57 -32 86 -48 28 -16 52 -31 52 -33 0 -11 130 -479 134 -483 7 -6
3 -18 75 210 33 103 62 191 65 196 3 5 47 12 98 16 123 9 233 38 331 87 l80
41 64 -67 c35 -37 66 -65 69 -62 3 3 -4 43 -15 90 -12 46 -21 93 -21 102 0 10
25 44 56 77 30 33 69 85 86 114 16 30 35 57 41 61 7 4 53 7 102 6 100 -3 100
-1 0 25 -70 18 -70 18 -69 53 0 19 10 55 22 81 l21 47 218 110 c120 60 214
110 208 111 -5 0 -106 7 -222 14 -117 8 -217 17 -221 20 -5 3 -19 37 -32 76
-12 38 -42 102 -65 142 -24 40 -41 77 -38 81 5 8 135 3 243 -9 79 -8 23 11
-160 56 -171 42 -230 67 -230 96 0 8 32 78 71 155 38 78 68 143 66 146 -3 2
-71 -41 -153 -96 -81 -56 -154 -101 -163 -101 -9 0 -43 9 -77 19 -33 11 -98
25 -143 31 l-82 13 -32 63 c-17 35 -34 64 -38 64 -3 0 -14 -29 -24 -65 -13
-51 -22 -66 -39 -70 -11 -3 -52 -11 -89 -20 -38 -8 -72 -15 -76 -15 -5 0 -66
70 -135 155 -70 85 -131 157 -136 160 -5 3 2 -19 15 -49z"/>
<path d="M1024 5387 c-64 -115 -118 -202 -126 -202 -8 0 -74 64 -147 143 -73
79 -135 141 -138 139 -2 -3 41 -121 95 -263 73 -190 98 -263 91 -276 -5 -9
-49 -44 -97 -77 -48 -33 -98 -71 -110 -84 l-23 -24 46 -6 c96 -14 136 -57 114
-125 -15 -46 -6 -135 26 -241 34 -115 33 -154 -6 -198 -22 -26 -29 -43 -27
-66 3 -32 3 -32 77 -39 82 -9 138 -36 147 -73 3 -12 -4 -53 -15 -90 -22 -71
-28 -150 -11 -160 5 -3 33 1 62 9 262 78 326 88 355 59 31 -31 36 -98 18 -233
-10 -67 -14 -124 -11 -127 3 -3 41 68 86 158 78 159 113 209 148 209 9 0 52
11 95 25 136 44 171 33 226 -70 20 -38 40 -68 45 -67 6 1 10 48 10 105 1 93 4
108 32 167 40 85 126 186 170 200 19 7 51 11 71 9 36 -2 93 9 93 17 0 2 -18
21 -41 41 -47 43 -72 87 -64 113 10 32 60 40 253 40 107 0 182 4 177 9 -6 5
-93 41 -195 80 -102 40 -189 77 -195 83 -7 6 2 20 28 42 42 38 45 46 17 46
-26 0 -27 36 0 50 10 6 68 26 127 45 109 36 141 50 133 59 -3 2 -70 12 -149
21 -181 21 -215 31 -219 67 -4 34 17 75 89 171 33 43 59 82 59 87 0 20 -26 20
-149 -1 -71 -12 -137 -19 -146 -15 -34 13 -12 50 60 98 124 83 146 100 142
105 -3 2 -74 -16 -158 -42 -83 -25 -159 -43 -168 -40 -28 8 -48 55 -66 149
-17 95 -38 146 -58 146 -6 0 -50 -34 -96 -76 -66 -58 -90 -74 -110 -72 -18 2
-27 10 -29 24 -9 61 -98 70 -128 12 -24 -47 -51 -68 -88 -68 -44 0 -77 28
-122 103 -37 62 -72 107 -83 107 -3 0 -56 -91 -117 -203z"/>
<path d="M8450 4508 c0 -3 20 -58 45 -121 63 -161 72 -207 48 -254 -10 -21
-29 -43 -43 -50 -35 -18 -105 -16 -142 3 -48 25 -138 30 -176 10 -45 -23 -40
-46 19 -103 101 -95 106 -149 34 -323 -49 -116 -51 -129 -44 -255 2 -44 -23
-102 -67 -154 -43 -51 -135 -108 -287 -177 -78 -35 -148 -71 -156 -79 -27 -26
15 -29 77 -5 31 12 91 33 132 47 41 14 83 29 92 34 10 5 44 9 77 9 43 0 65 5
84 20 31 25 51 25 102 1 49 -23 109 -80 198 -187 71 -84 126 -131 189 -157 52
-22 73 -69 102 -232 27 -148 44 -188 79 -183 19 3 23 11 29 63 10 95 44 171
102 231 58 60 111 79 185 69 39 -5 61 0 149 35 122 49 195 60 243 36 18 -9 33
-15 34 -14 2 2 10 38 18 81 19 94 52 170 97 221 35 40 116 86 150 86 25 0 25
5 0 40 -31 43 -34 80 -11 117 28 45 83 83 233 158 70 36 128 70 128 76 0 17
-47 28 -178 44 -197 24 -260 64 -284 178 -20 92 4 129 93 146 l44 7 -45 8
c-126 21 -210 70 -242 142 -23 52 -18 87 18 150 22 40 23 42 5 58 -9 9 -24 16
-32 16 -8 0 -70 -28 -138 -62 -108 -55 -131 -63 -180 -63 -47 0 -65 6 -108 33
-82 53 -101 55 -246 31 -122 -21 -130 -21 -172 -5 -46 18 -72 44 -114 115 -25
41 -140 171 -141 159z"/>
<path d="M5210 2318 c0 -7 43 -128 94 -268 l94 -254 -41 -76 c-53 -98 -52 -97
-94 -105 l-36 -7 27 -25 c24 -22 27 -31 22 -62 -3 -20 -8 -62 -12 -93 -4 -33
-14 -63 -23 -71 -9 -8 -74 -40 -144 -72 -77 -36 -123 -61 -115 -66 7 -3 69
-17 138 -29 69 -13 130 -28 136 -34 7 -6 20 -38 29 -71 9 -33 30 -91 47 -128
16 -38 27 -74 25 -81 -3 -6 -66 -40 -141 -75 -75 -36 -136 -67 -136 -71 0 -3
118 -28 263 -55 144 -26 282 -57 307 -68 110 -47 188 -69 270 -74 47 -3 94
-11 105 -18 11 -7 78 -61 150 -119 71 -59 131 -103 133 -98 1 4 -22 63 -53
130 -30 67 -55 126 -55 131 0 5 26 24 58 41 31 16 84 50 117 75 33 25 65 45
71 45 14 0 29 -12 204 -154 177 -144 162 -134 151 -105 -5 13 -54 125 -110
248 l-101 224 24 61 c14 33 29 62 35 64 6 2 26 -9 46 -23 19 -15 35 -25 35
-22 0 3 -15 39 -34 80 -33 72 -34 78 -26 148 8 75 -2 208 -21 284 -33 130
-114 278 -193 354 -20 19 -36 42 -36 52 0 9 21 74 46 144 25 69 43 129 41 132
-3 2 -50 -39 -105 -91 -55 -53 -105 -96 -112 -96 -6 0 -39 15 -73 34 -34 18
-75 37 -92 41 -47 11 -53 21 -61 102 -12 132 -18 139 -43 53 -45 -156 -33
-142 -146 -161 -55 -9 -124 -26 -152 -38 -29 -11 -61 -18 -70 -14 -10 3 -114
71 -230 150 -117 79 -213 138 -213 131z"/>
<path d="M480 2129 c-58 -105 -111 -199 -117 -208 -13 -17 -32 0 -221 202 -41
43 -76 77 -78 74 -2 -2 40 -120 95 -262 72 -186 97 -263 91 -275 -5 -9 -44
-41 -87 -70 -83 -56 -133 -99 -133 -112 0 -4 12 -8 28 -9 44 -1 95 -24 116
-52 17 -23 18 -31 8 -65 -18 -59 -15 -99 18 -225 39 -149 39 -180 0 -224 -33
-37 -40 -87 -14 -97 9 -3 37 -6 62 -6 60 0 128 -31 144 -64 9 -21 7 -39 -11
-98 -24 -81 -28 -154 -9 -160 7 -3 33 1 58 9 256 75 334 87 364 58 26 -26 30
-100 11 -232 -9 -68 -14 -127 -11 -130 3 -3 42 68 86 159 44 91 88 173 98 181
25 23 206 77 256 77 56 0 76 -16 115 -94 46 -93 62 -88 54 17 -4 68 -2 93 17
147 23 70 40 97 108 177 52 61 74 71 164 75 37 2 70 7 74 11 4 4 -12 24 -36
44 -46 39 -74 92 -64 118 12 29 52 35 240 35 101 0 184 4 184 8 0 5 -84 42
-187 82 -104 40 -192 77 -198 81 -5 6 6 24 29 48 35 36 36 39 17 44 -23 6 -28
29 -8 45 6 5 46 20 87 33 41 12 100 34 130 47 l55 25 -35 8 c-19 4 -82 13
-140 18 -153 16 -200 32 -200 66 0 39 14 65 84 159 36 49 66 95 66 102 0 18
-28 18 -126 0 -135 -25 -184 -24 -184 2 0 24 26 47 134 116 48 31 86 59 83 62
-5 5 -36 -3 -231 -60 -97 -29 -105 -27 -132 26 -8 16 -21 65 -29 109 -16 90
-33 132 -56 137 -8 1 -50 -29 -92 -67 -101 -92 -138 -103 -150 -42 -7 34 -27
44 -75 35 -25 -5 -39 -15 -51 -37 -27 -50 -48 -67 -85 -67 -47 0 -77 28 -135
125 -27 44 -55 81 -62 83 -9 1 -54 -70 -119 -189z"/>
</g>
</svg>
